<?xml version="1.0" encoding="utf-8"?>
<!-- Generator: Adobe Illustrator 16.0.0, SVG Export Plug-In . SVG Version: 6.00 Build 0)  -->
<!DOCTYPE svg PUBLIC "-//W3C//DTD SVG 1.1//EN" "http://www.w3.org/Graphics/SVG/1.1/DTD/svg11.dtd">
<svg version="1.1" id="Layer_1_copy_3" xmlns="http://www.w3.org/2000/svg" xmlns:xlink="http://www.w3.org/1999/xlink" x="0px"
	 y="0px" width="126px" height="126px" viewBox="0 0 126 126" enable-background="new 0 0 126 126" xml:space="preserve">
<g>
	<path d="M63,8.818C33.076,8.818,8.818,33.076,8.818,63S33.076,117.182,63,117.182S117.182,92.924,117.182,63S92.924,8.818,63,8.818
		z M72.715,43.991c0.729-1,1.684-1.551,2.691-1.551c1,0,1.942,0.437,2.625,1.173c0.684-0.736,1.626-1.173,2.626-1.173
		c1.006,0,1.961,0.551,2.688,1.551c0.637,0.874,1.002,1.963,1.002,2.988c0,1.628-1.006,3.473-2.991,5.485
		c-1.414,1.434-2.812,2.425-2.87,2.466c-0.137,0.097-0.296,0.145-0.455,0.145c-0.156,0-0.313-0.046-0.446-0.138
		c-0.24-0.164-5.872-4.068-5.872-7.958C71.713,45.954,72.078,44.865,72.715,43.991z M44.596,43.991c0.729-1,1.684-1.551,2.691-1.551
		c1,0,1.942,0.437,2.625,1.173c0.684-0.736,1.626-1.173,2.626-1.173c1.006,0,1.961,0.551,2.688,1.551
		c0.637,0.874,1.002,1.963,1.002,2.988c0,1.628-1.006,3.473-2.991,5.485c-1.414,1.434-2.812,2.425-2.87,2.466
		c-0.137,0.097-0.296,0.145-0.455,0.145c-0.156,0-0.313-0.046-0.446-0.138c-0.24-0.164-5.872-4.068-5.872-7.958
		C43.594,45.954,43.959,44.865,44.596,43.991z M86.488,74.039c-3.843,8.887-12.843,14.629-22.928,14.629
		c-10.301,0-19.354-5.771-23.064-14.703c-0.636-1.53,0.089-3.286,1.62-3.921c0.376-0.156,0.766-0.23,1.149-0.23
		c1.176,0,2.292,0.696,2.771,1.85c2.776,6.685,9.655,11.004,17.523,11.004c7.69,0,14.528-4.322,17.421-11.011
		c0.658-1.521,2.424-2.222,3.944-1.563C86.446,70.752,87.146,72.518,86.488,74.039z"/>
</g>
</svg>
